<svg width="561" height="541" viewBox="0 0 561 541" fill="none" xmlns="http://www.w3.org/2000/svg">
<g clip-path="url(#clip0_56_35)">
<path d="M499.16 278.978L423.948 187.343C422.207 185.22 419.995 183.533 417.488 182.414C414.981 181.294 412.248 180.775 409.505 180.896L299.906 185.714L230.3 100.898C228.388 98.5695 225.913 96.7687 223.109 95.6664C220.305 94.564 217.266 94.1968 214.28 94.5994C211.295 95.0021 208.462 96.1614 206.05 97.9672C203.639 99.773 201.729 102.165 200.502 104.917L106.853 314.702C104.122 320.818 105.083 327.943 109.329 333.129L184.542 424.763C186.283 426.886 188.495 428.574 191.002 429.693C193.509 430.812 196.242 431.332 198.985 431.211L308.584 426.393L378.197 511.192C380.097 513.529 382.566 515.337 385.368 516.442C388.17 517.547 391.209 517.912 394.192 517.501C400.271 516.673 405.488 512.789 407.988 507.19L501.637 297.404C504.367 291.288 503.406 284.163 499.16 278.978ZM303.537 220.932L382.494 217.472L304.953 391.175L225.996 394.634L303.537 220.932ZM221.121 145.435L271.263 206.524L193.721 380.226L143.579 319.137L221.121 145.435ZM387.369 466.672L337.227 405.582L414.769 231.88L464.91 292.97L387.369 466.672Z" fill="#857E7B" fill-opacity="0.1"/>
<path d="M322.2 240.43C351.302 248.421 381.243 232.07 388.958 203.972C396.673 175.875 379.281 146.526 350.179 138.535C321.078 130.544 291.137 146.895 283.421 174.993C275.706 203.09 293.098 232.439 322.2 240.43ZM343.185 164.009C357.735 168.004 366.431 182.679 362.574 196.727C358.716 210.776 343.746 218.952 329.195 214.956C314.644 210.96 305.948 196.286 309.806 182.237C313.663 168.189 328.634 160.013 343.185 164.009Z" fill="#857E7B"/>
<path d="M287.219 337.854C289.029 340.007 291.477 341.569 294.221 342.322C296.964 343.076 299.867 342.983 302.522 342.056C307.285 340.419 419.585 300.592 441.726 218.462C457.153 162.28 422.359 103.566 364.169 87.5877C305.979 71.609 246.081 104.321 230.671 160.439C207.747 242.423 283.961 334.015 287.219 337.854ZM357.174 113.061C400.827 125.048 426.915 169.071 415.325 211.281C400.08 267.883 327.979 302.668 302.142 313.475C285.464 290.98 241.228 224.236 257.037 167.748C268.61 125.601 313.522 101.075 357.174 113.061Z" fill="#122C34"/>
</g>
<defs>
<clipPath id="clip0_56_35">
<rect width="424.133" height="424.133" fill="white" transform="translate(172.891) rotate(24.0562)"/>
</clipPath>
</defs>
</svg>
