<svg width="76"  height="76" viewBox="0 0 76 76" fill="none" xmlns="http://www.w3.org/2000/svg">
<rect x="36.6571" y="43.3199" width="14.96" height="15.2454" transform="rotate(41.7481 36.6571 43.3199)" fill="#5EBAC3" fill-opacity="0.5"/>
<rect x="13.68" y="9.12" width="49.4" height="48.64" fill="#5EBAC3" fill-opacity="0.5"/>
<path d="M60.1667 6.33337H15.8333C12.3405 6.33337 9.5 9.17387 9.5 12.6667V53.8334C9.5 57.3262 12.3405 60.1667 15.8333 60.1667H28.5L38 69.6667L47.5 60.1667H60.1667C63.6595 60.1667 66.5 57.3262 66.5 53.8334V12.6667C66.5 9.17387 63.6595 6.33337 60.1667 6.33337ZM44.3333 53.8334L38 60.1667L31.6667 53.8334H15.8333V12.6667H60.1667L60.173 53.8334H44.3333Z" fill="#122C34"/>
</svg>
