<svg width="120" height="120" viewBox="0 0 120 120" fill="none" xmlns="http://www.w3.org/2000/svg">
<path d="M18.455 31.46C25.47 23.855 36.085 20 50 20H55V34.095L50.98 34.9C44.13 36.27 39.365 38.965 36.815 42.92C35.4845 45.0506 34.7299 47.4902 34.625 50H50C51.3261 50 52.5979 50.5268 53.5355 51.4645C54.4732 52.4021 55 53.6739 55 55V90C55 95.515 50.515 100 45 100H15C13.6739 100 12.4022 99.4732 11.4645 98.5355C10.5268 97.5979 10 96.3261 10 95V70L10.015 55.405C9.97001 54.85 9.02001 41.7 18.455 31.46ZM100 100H70C68.6739 100 67.4022 99.4732 66.4645 98.5355C65.5268 97.5979 65 96.3261 65 95V70L65.015 55.405C64.97 54.85 64.02 41.7 73.455 31.46C80.47 23.855 91.085 20 105 20H110V34.095L105.98 34.9C99.13 36.27 94.365 38.965 91.815 42.92C90.4845 45.0506 89.7299 47.4902 89.625 50H105C106.326 50 107.598 50.5268 108.536 51.4645C109.473 52.4021 110 53.6739 110 55V90C110 95.515 105.515 100 100 100Z" fill="#85C9B9"/>
</svg>
