<svg width="120" height="120" viewBox="0 0 120 120" fill="none" xmlns="http://www.w3.org/2000/svg">
<path d="M101.545 88.54C110.98 78.3 110.03 65.15 110 65V25C110 23.6739 109.473 22.4021 108.536 21.4645C107.598 20.5268 106.326 20 105 20H75C69.485 20 65 24.485 65 30V65C65 66.3261 65.5268 67.5979 66.4644 68.5355C67.4021 69.4732 68.6739 70 70 70H85.39C85.2843 72.4719 84.5457 74.8753 83.245 76.98C80.705 80.985 75.92 83.72 69.015 85.1L65 85.9V100H70C83.915 100 94.53 96.145 101.545 88.54ZM46.51 88.54C55.95 78.3 54.995 65.15 54.965 65V25C54.965 23.6739 54.4382 22.4021 53.5005 21.4645C52.5628 20.5268 51.291 20 49.965 20H19.965C14.45 20 9.96497 24.485 9.96497 30V65C9.96497 66.3261 10.4917 67.5979 11.4294 68.5355C12.3671 69.4732 13.6389 70 14.965 70H30.355C30.2493 72.4719 29.5107 74.8753 28.21 76.98C25.67 80.985 20.885 83.72 13.98 85.1L9.96497 85.9V100H14.965C28.88 100 39.495 96.145 46.51 88.54Z" fill="#85C9B9"/>
</svg>
